<svg width="164" height="164" viewBox="0 0 164 164" fill="none" xmlns="http://www.w3.org/2000/svg">
<circle cx="82" cy="82" r="82" fill="#CD8151"/>
<path d="M36.2608 114.76C37.1301 117.69 39.3179 120.046 42.1758 121.13C45.2809 122.283 48.7516 121.863 51.4924 120.003C52.1953 119.467 53.0995 119.268 53.9624 119.462C57.0947 120.217 60.1014 121.421 62.8891 123.037C63.8944 123.606 64.2757 124.865 63.7558 125.897C62.8671 127.68 62.4071 129.646 62.4125 131.638C62.4125 139.46 73.2024 144.833 81.3491 144.833C89.4958 144.833 100.286 139.46 100.286 131.638C100.291 129.646 99.8311 127.68 98.9424 125.897C98.4225 124.865 98.8038 123.606 99.8091 123.037C102.595 121.417 105.602 120.213 108.736 119.462C109.599 119.268 110.503 119.467 111.206 120.003C113.947 121.863 117.417 122.283 120.522 121.13C123.38 120.046 125.568 117.69 126.437 114.76C127.335 111.751 126.753 108.495 124.869 105.983C122.985 103.471 120.022 102.001 116.882 102.02C115.961 102.033 115.044 102.157 114.152 102.388C109.45 103.916 104.322 101.935 101.867 97.6433C101.865 97.6269 101.858 97.6117 101.846 97.6C100.891 95.7869 99.4307 94.2893 97.6425 93.2883C97.7905 93.0005 97.9207 92.7038 98.0324 92.4C98.3342 91.5582 98.4953 90.6725 98.5091 89.7783C98.5112 88.0608 98.1261 86.3649 97.3825 84.8167C96.8615 83.7783 97.2418 82.5137 98.2491 81.935C100.726 80.5555 103.379 79.5204 106.136 78.8583C106.896 78.6882 107.693 78.8714 108.302 79.3567C110.796 81.0461 113.956 81.4178 116.774 80.3533C120.823 78.8857 123.207 74.6944 122.399 70.4638C121.591 66.2333 117.829 63.2162 113.524 63.345C112.689 63.3256 111.856 63.4352 111.054 63.67C106.805 65.0278 102.18 63.2768 99.8958 59.445C99.8958 59.4233 99.8741 59.4017 99.8741 59.38C98.9234 57.6138 97.4364 56.1951 95.6275 55.3283C96.3103 54.2361 96.6777 52.9764 96.6891 51.6883C96.6894 50.143 96.3646 48.6149 95.7358 47.2033C95.2541 46.1749 95.6285 44.9489 96.6025 44.365C98.7781 43.1325 101.11 42.1996 103.536 41.5917C104.237 41.4782 104.955 41.6499 105.529 42.0683C107.722 43.5959 110.526 43.9445 113.026 43C115.379 42.1201 117.172 40.1734 117.857 37.7567C118.588 35.3043 118.124 32.651 116.603 30.5931C115.082 28.5353 112.681 27.3124 110.122 27.2917C109.377 27.2972 108.635 27.3918 107.912 27.5733C104.101 28.8502 99.9213 27.2292 97.9675 23.7167C97.6551 23.1234 97.3871 22.5079 97.1658 21.875C96.6664 20.2889 95.21 19.1988 93.5474 19.1667H69.1508C67.4882 19.1988 66.0318 20.2889 65.5325 21.875C65.3111 22.5079 65.0432 23.1234 64.7308 23.7167C62.777 27.2292 58.597 28.8502 54.7858 27.5733C54.063 27.3918 53.321 27.2972 52.5758 27.2917C50.0169 27.3124 47.6167 28.5353 46.0957 30.5931C44.5747 32.651 44.1099 35.3043 44.8408 37.7567C45.5258 40.1734 47.3197 42.1201 49.6724 43C52.1721 43.9445 54.9767 43.5959 57.1691 42.0683C57.7433 41.6499 58.461 41.4782 59.1624 41.5917C61.5879 42.1996 63.9201 43.1325 66.0958 44.365C67.0697 44.9489 67.4441 46.1749 66.9625 47.2033C66.3337 48.6149 66.0088 50.143 66.0091 51.6883C66.0205 52.9764 66.388 54.2361 67.0708 55.3283H67.0491C65.2507 56.2024 63.7727 57.6198 62.8241 59.38C62.8241 59.4017 62.8025 59.4233 62.8025 59.445C60.5181 63.2768 55.8935 65.0278 51.6441 63.67C50.8424 63.4352 50.0093 63.3256 49.1741 63.345C44.8689 63.2162 41.1077 66.2333 40.2993 70.4638C39.4909 74.6944 41.8748 78.8857 45.9241 80.3533C48.7421 81.4178 51.9017 81.0461 54.3958 79.3567C55.0055 78.8714 55.802 78.6882 56.5624 78.8583C59.319 79.5204 61.9724 80.5555 64.4491 81.935C65.4565 82.5137 65.8368 83.7783 65.3158 84.8167C64.5721 86.3649 64.187 88.0608 64.1891 89.7783C64.203 90.6725 64.364 91.5582 64.6658 92.4C64.7775 92.7038 64.9077 93.0005 65.0558 93.2883C63.2675 94.2893 61.8076 95.7869 60.8524 97.6C60.8407 97.6117 60.8331 97.6269 60.8308 97.6433C58.3765 101.935 53.2478 103.916 48.5458 102.388C47.6538 102.157 46.7372 102.033 45.8158 102.02C42.676 102.001 39.713 103.471 37.8291 105.983C35.9451 108.495 35.3633 111.751 36.2608 114.76Z" fill="#FFE0B2"/>
<path d="M51.3408 37.7567C52 40.0293 53.6424 41.8873 55.8171 42.8202C53.8715 43.6828 51.6651 43.7473 49.6725 43C47.3197 42.1201 45.5258 40.1734 44.8408 37.7567C44.1099 35.3043 44.5747 32.651 46.0957 30.5931C47.6167 28.5353 50.0169 27.3124 52.5758 27.2917C53.321 27.2972 54.063 27.3918 54.7858 27.5733C55.2328 27.6995 55.6882 27.7936 56.1486 27.855C52.2319 29.4213 50.1495 33.7101 51.3408 37.7567Z" fill="#DFC49C"/>
<path d="M73.5491 55.3283C71.7507 56.2024 70.2727 57.6198 69.3241 59.38C69.3241 59.4017 69.3025 59.4233 69.3025 59.445C67.0181 63.2768 62.3935 65.0278 58.1441 63.67C57.9968 63.6223 57.8278 63.605 57.6718 63.5682C59.8589 62.928 61.7035 61.4479 62.8025 59.4515C62.8025 59.4298 62.8241 59.4082 62.8241 59.3865C63.7727 57.6263 65.2507 56.2089 67.0491 55.3348H67.0708C66.388 54.2426 66.0205 52.9828 66.0091 51.6948C66.0089 50.1495 66.3337 48.6214 66.9625 47.2098C67.4441 46.1814 67.0697 44.9554 66.0958 44.3715C64.9608 43.7334 63.7812 43.178 62.5663 42.7097C62.95 42.5273 63.3187 42.315 63.6691 42.0748C64.2434 41.6563 64.961 41.4847 65.6625 41.5982C68.0879 42.2061 70.4201 43.139 72.5958 44.3715C73.5697 44.9554 73.9441 46.1814 73.4625 47.2098C72.8337 48.6214 72.5089 50.1495 72.5091 51.6948C72.5205 52.9828 72.888 54.2426 73.5708 55.3348L73.5491 55.3283Z" fill="#DFC49C"/>
<path d="M72.0325 21.875C71.8112 22.5079 71.5432 23.1234 71.2308 23.7167C69.277 27.2292 65.097 28.8502 61.2858 27.5733C61.0323 27.5105 60.7593 27.4672 60.4863 27.4217C62.3208 26.7714 63.8386 25.4465 64.7308 23.7167C65.0432 23.1234 65.3112 22.5079 65.5325 21.875C66.0319 20.2889 67.4883 19.1988 69.1508 19.1667H75.6508C73.9883 19.1988 72.5319 20.2889 72.0325 21.875Z" fill="#DFC49C"/>
<path d="M51.6441 63.67C51.9756 63.7588 52.3093 63.8021 52.6429 63.8606C49.1082 65.027 46.703 68.3078 46.6541 72.0297C46.6052 75.7516 48.9234 79.0945 52.4263 80.3533H52.4436C50.3428 81.1421 48.0271 81.1421 45.9263 80.3533C41.8769 78.8857 39.493 74.6944 40.3014 70.4638C41.1098 66.2333 44.8711 63.2162 49.1763 63.345C50.0107 63.3258 50.8431 63.4354 51.6441 63.67Z" fill="#DFC49C"/>
<path d="M71.5558 93.2883C69.7676 94.2893 68.3076 95.7869 67.3525 97.6C67.3407 97.6117 67.3331 97.6269 67.3308 97.6433C64.8765 101.935 59.7478 103.916 55.0458 102.388C55.0025 102.388 54.957 102.373 54.9136 102.362C57.4462 101.66 59.5831 99.9563 60.8308 97.6433C60.8331 97.6269 60.8407 97.6117 60.8525 97.6C61.8076 95.7869 63.2676 94.2893 65.0558 93.2883C64.9078 93.0005 64.7775 92.7038 64.6658 92.4C64.364 91.5582 64.203 90.6725 64.1891 89.7783C64.187 88.0608 64.5721 86.3649 65.3158 84.8167C65.8368 83.7783 65.4565 82.5137 64.4491 81.935C63.0116 81.1425 61.5141 80.4637 59.9706 79.9048C60.2893 79.74 60.5982 79.557 60.8958 79.3567C61.5055 78.8714 62.302 78.6882 63.0625 78.8583C65.819 79.5204 68.4724 80.5555 70.9491 81.935C71.9565 82.5137 72.3368 83.7783 71.8158 84.8167C71.0721 86.3649 70.687 88.0608 70.6891 89.7783C70.703 90.6725 70.864 91.5582 71.1658 92.4C71.2775 92.7038 71.4078 93.0005 71.5558 93.2883Z" fill="#DFC49C"/>
<path d="M62.8891 123.037C61.0947 122.006 59.2089 121.143 57.2558 120.458C57.5093 120.313 57.7606 120.168 57.9968 120.003C58.6996 119.467 59.6039 119.268 60.4668 119.462C63.5991 120.217 66.6057 121.421 69.3935 123.037C70.3988 123.606 70.7801 124.865 70.2601 125.897C69.3715 127.68 68.9115 129.646 68.9168 131.638C68.9168 138.452 77.1068 143.405 84.6035 144.569C83.527 144.74 82.439 144.828 81.3491 144.833C73.2025 144.833 62.4125 139.46 62.4125 131.638C62.4071 129.646 62.8671 127.68 63.7558 125.897C64.2758 124.865 63.8944 123.606 62.8891 123.037Z" fill="#DFC49C"/>
<path d="M45.8158 102.02C46.7373 102.033 47.6538 102.157 48.5458 102.388C48.7625 102.451 48.9791 102.473 49.2088 102.523C45.2192 103.797 42.469 107.451 42.3491 111.637C42.2292 115.824 44.7657 119.63 48.6758 121.13C48.7885 121.169 48.8925 121.191 49.0138 121.227C46.7875 121.959 44.3803 121.925 42.1758 121.13C39.318 120.046 37.1302 117.69 36.2608 114.76C35.3633 111.751 35.9452 108.495 37.8291 105.983C39.713 103.471 42.676 102.001 45.8158 102.02Z" fill="#DFC49C"/>
<path d="M74.8491 136.167C76.0457 136.167 77.0158 135.197 77.0158 134C76.7845 125.062 78.9543 116.226 83.2991 108.412C87.9291 100.002 90.2467 90.5143 90.0158 80.9167C90.2467 71.3191 87.9291 61.8318 83.2991 53.4217C78.9543 45.6075 76.7845 36.7712 77.0158 27.8333C77.0158 26.6367 76.0457 25.6667 74.8491 25.6667C73.6525 25.6667 72.6824 26.6367 72.6824 27.8333C72.4515 37.4309 74.7691 46.9182 79.3991 55.3283C83.7439 63.1425 85.9137 71.9788 85.6824 80.9167C85.9137 89.8545 83.7439 98.6908 79.3991 106.505C74.7691 114.915 72.4515 124.402 72.6824 134C72.6824 134.575 72.9107 135.126 73.317 135.532C73.7234 135.938 74.2745 136.167 74.8491 136.167Z" fill="#02A9F4"/>
<path d="M87.8491 136.167C89.0457 136.167 90.0158 135.197 90.0158 134C90.2468 124.403 87.9291 114.917 83.2991 106.507C78.9541 98.6923 76.7843 89.8552 77.0158 80.9167C76.7846 71.9788 78.9544 63.1425 83.2991 55.3283C87.9294 46.9183 90.247 37.431 90.0158 27.8333C90.0158 26.6367 89.0457 25.6667 87.8491 25.6667C86.6525 25.6667 85.6825 26.6367 85.6825 27.8333C85.914 36.7719 83.7442 45.609 79.3991 53.4238C74.7691 61.8332 72.4515 71.3197 72.6825 80.9167C72.4512 90.5143 74.7689 100.002 79.3991 108.412C83.7439 116.226 85.9137 125.062 85.6825 134C85.6825 134.575 85.9107 135.126 86.3171 135.532C86.7234 135.938 87.2745 136.167 87.8491 136.167Z" fill="#EF314C"/>
<path d="M45.8158 99.8533C46.9387 99.8675 48.0557 100.02 49.1416 100.306C52.845 101.551 56.9141 100.029 58.8916 96.6597C58.9018 96.6345 58.9134 96.6099 58.9263 96.586C59.7833 94.9648 60.978 93.5463 62.4298 92.426C62.1729 91.5661 62.033 90.6756 62.0138 89.7783C62.0114 87.7162 62.4813 85.681 63.3874 83.8287C61.0735 82.5424 58.5952 81.5773 56.0208 80.96C55.9601 80.9405 55.8214 80.9838 55.5874 81.1507C52.5269 83.2363 48.6423 83.7003 45.1766 82.3943C41.953 81.1833 39.4698 78.5506 38.4491 75.2617C37.4848 71.9386 38.145 68.3553 40.2301 65.594C42.3631 62.812 45.6685 61.1801 49.1741 61.1783C50.1997 61.1543 51.2229 61.2888 52.2074 61.577C55.4365 62.6346 58.9732 61.3902 60.8286 58.5437C60.8568 58.4787 60.8893 58.4137 60.9218 58.3487C61.7533 56.8241 62.9138 55.5037 64.3191 54.4833C64.0117 53.5862 63.8508 52.6453 63.8424 51.697C63.8422 49.8199 64.2449 47.9646 65.0233 46.2565C63.0582 45.1386 60.9523 44.2889 58.7616 43.7302C58.6357 43.728 58.513 43.7702 58.4149 43.8493C55.6423 45.7776 52.1005 46.2245 48.9358 45.0453C45.9214 43.9297 43.6233 41.4383 42.7543 38.3438C41.8467 35.1894 42.4785 31.7917 44.4594 29.1745C46.3758 26.6213 49.3834 25.1207 52.5758 25.125C53.5262 25.1307 54.4722 25.2537 55.3924 25.4912C58.2219 26.4744 61.3498 25.2968 62.8284 22.6918C63.0814 22.2026 63.2987 21.6957 63.4784 21.1752C64.2851 18.716 66.563 17.0393 69.1508 17H93.5474C96.1234 17.0338 98.3947 18.6971 99.2046 21.1427C99.3948 21.6862 99.6251 22.2149 99.8936 22.7243C101.4 25.3307 104.554 26.487 107.388 25.4717C111.419 24.3959 115.701 25.8538 118.239 29.1658C120.222 31.7895 120.853 35.1948 119.94 38.3547C119.069 41.4376 116.777 43.919 113.773 45.0323C110.62 46.2161 107.087 45.7806 104.316 43.8667C104.164 43.767 104.017 43.7128 104.064 43.6998C101.825 44.2427 99.6838 45.1293 97.7161 46.328C98.4694 48.0168 98.8577 49.8456 98.8558 51.6948C98.8475 52.6439 98.6865 53.5854 98.3791 54.4833C99.787 55.5032 100.949 56.8255 101.779 58.353C101.811 58.418 101.844 58.483 101.872 58.548C103.694 61.3734 107.182 62.6293 110.387 61.6138C111.404 61.3067 112.462 61.1604 113.524 61.1805C117.032 61.1803 120.34 62.8124 122.475 65.5962C124.568 68.3765 125.223 71.9838 124.238 75.3223C123.207 78.5866 120.729 81.1937 117.522 82.39C114.015 83.7074 110.085 83.2216 107.005 81.09C106.908 80.9997 106.777 80.9541 106.645 80.9643C104.076 81.5698 101.612 82.5533 99.3324 83.8828C100.216 85.7225 100.672 87.7377 100.669 89.7783C100.65 90.6757 100.509 91.5663 100.251 92.426C101.702 93.5455 102.895 94.9634 103.75 96.5838L103.776 96.6293C105.763 100.05 109.895 101.583 113.632 100.287C114.694 100.011 115.786 99.866 116.882 99.8533C122.71 99.8217 127.725 103.964 128.794 109.692C129.864 115.421 126.681 121.093 121.235 123.167C117.482 124.534 113.302 124.021 109.99 121.789C109.782 121.611 109.508 121.528 109.236 121.561C106.301 122.264 103.486 123.398 100.884 124.928C101.918 127.011 102.454 129.305 102.45 131.63C102.45 141.15 90.1588 147 81.3491 147C72.5394 147 60.2479 141.15 60.2479 131.638C60.2474 129.31 60.7803 127.012 61.8058 124.922C59.1802 123.394 56.345 122.26 53.3904 121.555C53.1541 121.556 52.9252 121.637 52.7404 121.784C49.4106 124.033 45.2039 124.547 41.4304 123.167C35.9891 121.083 32.8166 115.406 33.8937 109.68C34.9708 103.954 39.9892 99.8173 45.8158 99.8533ZM38.3429 114.166C39.0235 116.418 40.7012 118.231 42.8929 119.085C45.3497 120.018 48.1072 119.694 50.2813 118.218C51.4829 117.329 53.0138 117.013 54.4694 117.351C57.8105 118.154 61.0164 119.44 63.9854 121.169C65.9586 122.322 66.7066 124.803 65.6993 126.854C64.9631 128.341 64.5811 129.977 64.5834 131.636C64.5791 137.746 73.7506 142.667 81.3491 142.667C88.9476 142.667 98.1191 137.746 98.1191 131.638C98.121 129.979 97.7383 128.343 97.0011 126.856C95.9923 124.804 96.7427 122.321 98.7193 121.171C101.665 119.452 104.846 118.172 108.162 117.373C109.647 117.006 111.219 117.319 112.449 118.229C114.605 119.687 117.334 120.01 119.771 119.095C123.619 117.576 125.591 113.298 124.247 109.385C122.904 105.471 118.721 103.307 114.75 104.47C109.063 106.309 102.868 103.874 99.9543 98.6552V98.6443L99.9369 98.6097C99.4813 97.7594 98.8842 96.993 98.1711 96.3433C97.4411 97.2481 96.6102 98.0666 95.6946 98.783C94.7529 99.5213 93.3909 99.3564 92.6526 98.4147C91.9143 97.4729 92.0792 96.111 93.0209 95.3727C94.125 94.5439 95.0413 93.4909 95.7098 92.283C95.7446 92.2142 95.7836 92.1476 95.8268 92.0837C95.8896 91.9493 95.9459 91.8215 95.9914 91.6958C96.2151 91.0798 96.3366 90.4314 96.3511 89.7762C96.3531 88.3777 96.0383 86.9969 95.4303 85.7375C94.4352 83.6678 95.2089 81.181 97.2026 80.0413C99.8454 78.5707 102.676 77.4657 105.616 76.7567C106.971 76.4309 108.401 76.7264 109.516 77.5627C111.44 78.8615 113.876 79.1413 116.044 78.3123C117.966 77.599 119.454 76.0432 120.08 74.0917C120.687 72.0756 120.294 69.8908 119.021 68.2135C117.717 66.497 115.68 65.4958 113.524 65.5117C112.879 65.495 112.234 65.5798 111.615 65.763C106.396 67.3755 100.753 65.1843 97.9891 60.472C97.9545 60.4113 97.9241 60.3484 97.8981 60.2835C97.457 59.515 96.8808 58.8324 96.1973 58.2685C95.5657 58.9984 94.8703 59.6705 94.1194 60.277C93.1933 61.0357 91.8274 60.8998 91.0688 59.9737C90.3101 59.0475 90.4459 57.6817 91.3721 56.923C92.2796 56.2267 93.0565 55.375 93.6666 54.4075C93.6964 54.3429 93.7296 54.28 93.7663 54.219C94.2443 53.467 94.5032 52.5967 94.5138 51.7057C94.5144 50.4594 94.2515 49.2271 93.7424 48.0895C92.83 46.0448 93.595 43.6409 95.5213 42.4995C97.9064 41.1485 100.466 40.1322 103.128 39.4792C104.404 39.262 105.713 39.5622 106.766 40.3133C108.379 41.4386 110.446 41.6887 112.28 40.9807C113.977 40.3455 115.27 38.9396 115.76 37.1955C116.301 35.3456 115.939 33.3493 114.783 31.807C113.686 30.334 111.959 29.4638 110.122 29.4583C109.579 29.4626 109.039 29.5288 108.51 29.6555C103.718 31.2353 98.4807 29.1685 96.0586 24.7415C95.6908 24.0438 95.3757 23.3196 95.1161 22.5748C94.9152 21.8663 94.2832 21.3661 93.5474 21.3333H69.1508C68.404 21.3701 67.7665 21.885 67.5734 22.6073C67.3192 23.3291 67.0129 24.0315 66.6569 24.709C64.2599 29.1306 59.053 31.2173 54.2658 29.675C51.9144 29.0157 49.3984 29.8529 47.9109 31.7897C46.7597 33.3228 46.3939 35.3071 46.9229 37.15C47.4132 38.9054 48.7128 40.3208 50.4199 40.959C52.2647 41.6649 54.34 41.4049 55.9536 40.2657C57.0415 39.5159 58.3858 39.2363 59.6824 39.49C62.3078 40.147 64.8314 41.1587 67.1834 42.4973C69.099 43.647 69.8512 46.0481 68.9341 48.0852C68.4272 49.2187 68.1658 50.4466 68.1671 51.6883C68.1777 52.5793 68.4366 53.4497 68.9146 54.2017C68.9514 54.2667 68.9883 54.3338 69.0208 54.4032L69.0424 54.4357C69.6436 55.3984 70.4153 56.2435 71.3196 56.9295C72.2458 57.6882 72.3816 59.054 71.6229 59.9802C70.8643 60.9063 69.4985 61.0422 68.5723 60.2835C67.8214 59.6771 67.1253 59.0057 66.4923 58.2772C65.8112 58.8421 65.236 59.5237 64.7936 60.29C64.7677 60.3549 64.7373 60.4178 64.7026 60.4785C61.9094 65.2168 56.2143 67.3985 50.9703 65.7392C50.3839 65.5758 49.776 65.5028 49.1676 65.5225C47.0112 65.5059 44.9732 66.5072 43.6686 68.2243C42.4021 69.8814 41.9999 72.0422 42.5853 74.044C43.2159 76.0257 44.7289 77.6035 46.6824 78.3167C48.8107 79.1329 51.202 78.8724 53.1044 77.6168C54.2302 76.7427 55.6906 76.4242 57.0781 76.7502C60.0216 77.4644 62.8547 78.5744 65.4999 80.05C67.4985 81.1933 68.2717 83.6881 67.2701 85.7613C66.666 87.018 66.3534 88.3948 66.3558 89.7892C66.3694 90.4359 66.488 91.0762 66.7068 91.685C66.7588 91.8258 66.8151 91.9602 66.8779 92.0945C66.9296 92.1699 66.9759 92.2488 67.0166 92.3307C67.6702 93.54 68.5815 94.591 69.6859 95.4095C70.5896 96.1587 70.7323 97.4912 70.0078 98.4148C69.2833 99.3384 67.9551 99.517 67.0123 98.8177C66.0913 98.0981 65.2554 97.276 64.5206 96.3672C63.8219 97.0078 63.2359 97.7615 62.7873 98.5967C62.7765 98.6205 62.7635 98.6443 62.7505 98.6682C59.8541 103.872 53.6905 106.312 48.0171 104.501C47.2972 104.313 46.5575 104.211 45.8136 104.198C43.3524 104.182 41.0296 105.334 39.5519 107.302C38.0713 109.264 37.6217 111.817 38.3429 114.166Z" fill="black"/>
</svg>
