<svg width="164" height="164" viewBox="0 0 164 164" fill="none" xmlns="http://www.w3.org/2000/svg">
<circle cx="82" cy="82" r="82" fill="#FCC848"/>
<path d="M72.4275 139.566V127.788C72.4275 124.862 70.0618 122.487 67.1362 122.476L48.7561 122.404C45.6059 122.391 42.9199 120.119 42.3856 117.014L39.2579 98.8345H32.364C31.5268 98.8345 30.8483 98.156 30.8483 97.3188C30.8483 91.524 32.4695 85.8451 35.5284 80.9235L37.7713 77.3148C38.0791 76.8197 38.2208 76.239 38.176 75.6579L37.3341 64.7634C35.5037 41.0772 54.2299 20.8481 77.9866 20.8481C107.008 20.8481 127.815 48.8354 119.455 76.6264L110.961 104.862V139.376C110.961 141.336 109.378 142.928 107.418 142.94L76.0131 143.13C74.0363 143.142 72.4275 141.543 72.4275 139.566Z" fill="#FFCEBF"/>
<path d="M84.0609 141.161V120.215C84.0609 117.29 81.6952 114.915 78.7696 114.903L60.3895 114.831C57.2393 114.819 54.5533 112.546 54.019 109.442L52.0602 98.0562C51.3849 94.1307 47.9805 91.2621 43.9974 91.2621C43.16 91.2621 42.4815 90.5767 42.4817 89.7393C42.483 83.947 44.1041 78.2708 47.1618 73.3512L49.4047 69.7424C49.7125 69.2473 49.8543 68.6666 49.8094 68.0855L48.9675 57.191C47.9559 44.0996 53.2272 32.0645 62.1533 23.9169C46.3594 30.4404 35.6531 46.5841 37.0579 64.7634L37.8997 75.6579C37.9446 76.2393 37.8029 76.8197 37.4951 77.3148L35.2521 80.9235C32.1932 85.8451 30.5721 91.5241 30.5721 97.3188C30.5721 98.156 31.2506 98.8345 32.0877 98.8345H38.9817L42.1093 117.014C42.6434 120.119 45.3297 122.391 48.4798 122.404L66.86 122.476C69.7856 122.487 72.1512 124.862 72.1512 127.788V140.6C72.1512 142.007 73.296 143.145 74.7027 143.136L84.9368 143.075C84.4012 142.61 84.0609 141.926 84.0609 141.161Z" fill="#FFB09E"/>
<path d="M79.0829 94.7049C96.224 94.7049 110.12 80.8093 110.12 63.6681C110.12 46.527 96.224 32.6313 79.0829 32.6313C61.9417 32.6313 48.0461 46.527 48.0461 63.6681C48.0461 80.8093 61.9417 94.7049 79.0829 94.7049Z" fill="#FD8087"/>
<path d="M62.6627 63.6681C62.6627 49.0446 72.7812 36.784 86.3953 33.4979C84.0513 32.932 81.6006 32.6316 79.0829 32.6316C61.9419 32.6316 48.0461 46.5271 48.0461 63.6684C48.0461 80.8097 61.9416 94.7052 79.0829 94.7052C81.6006 94.7052 84.0515 94.4035 86.3953 93.8377C72.7812 90.551 62.6627 78.2917 62.6627 63.6681Z" fill="#FE646F"/>
<path d="M81.187 79.8867L95.8177 63.8337C99.5184 59.7735 99.3735 53.5213 95.489 49.6368L95.4547 49.6025C91.4393 45.5869 84.9289 45.5869 80.9132 49.6025L79.077 51.4388L77.2037 49.573C73.1858 45.5714 66.6867 45.578 62.677 49.5878C58.7725 53.4922 58.649 59.7833 62.397 63.8382L77.2446 79.9007C78.309 81.0521 80.1308 81.0457 81.187 79.8867Z" fill="#F9F7F8"/>
<path d="M115.414 90.0582C114.438 89.7639 113.406 90.3182 113.112 91.2956L109.191 104.33C109.139 104.502 109.113 104.682 109.113 104.862V142.919C109.113 143.94 109.94 144.767 110.961 144.767C111.982 144.767 112.809 143.94 112.809 142.919V105.134L116.652 92.3605C116.946 91.3831 116.392 90.3522 115.414 90.0582Z" fill="black"/>
<path d="M77.9867 19C71.9272 19 66.0778 20.2421 60.6002 22.6918C55.3272 25.0501 50.6535 28.4065 46.7088 32.6678C42.7642 36.9292 39.7777 41.8475 37.833 47.2867C35.8123 52.9365 35.0244 58.8646 35.4915 64.9058L36.3331 75.8003C36.3479 75.9906 36.3023 76.1769 36.2015 76.3393L33.9586 79.9481C30.7145 85.1671 29 91.1738 29 97.3188C29 99.1738 30.509 100.683 32.3638 100.683H37.7004L40.5639 117.327C41.2515 121.324 44.6936 124.236 48.7487 124.252L67.1289 124.324C69.0312 124.331 70.5789 125.885 70.5789 127.788V143.152C70.5789 144.173 71.4062 145 72.4273 145C73.4483 145 74.2756 144.173 74.2756 143.152V127.788C74.2756 123.855 71.0762 120.643 67.1434 120.627L48.7632 120.555C46.506 120.546 44.5899 118.925 44.2074 116.701L41.0797 98.521C40.9271 97.634 40.158 96.9858 39.2579 96.9858H32.6987C32.7591 91.647 34.2772 86.4376 37.0986 81.899L39.3415 78.2902C39.8605 77.4547 40.0949 76.4951 40.019 75.5147L39.1774 64.6204C38.3323 53.684 41.9706 43.2282 49.422 35.1786C56.8734 27.1291 67.0177 22.6967 77.9869 22.6967C91.2289 22.6967 103.355 28.7914 111.256 39.4188C119.156 50.0457 121.499 63.4133 117.685 76.0941L115.402 83.682C115.108 84.6594 115.662 85.6903 116.64 85.9843C117.616 86.2776 118.648 85.7243 118.942 84.7469L121.225 77.159C125.38 63.3478 122.827 48.788 114.222 37.2133C105.617 25.6386 92.4098 19 77.9867 19V19Z" fill="black"/>
<path d="M104.27 42.5277C103.614 41.746 102.448 41.645 101.666 42.3015C100.885 42.958 100.783 44.1242 101.44 44.9055C105.845 50.1484 108.272 56.8122 108.272 63.6681C108.272 79.7627 95.1775 92.8566 79.0829 92.8566C62.9883 92.8566 49.8944 79.7627 49.8944 63.6681C49.8944 47.5735 62.9883 34.4797 79.0829 34.4797C85.1117 34.4797 90.8991 36.3032 95.8195 39.7535C96.6549 40.3395 97.8078 40.1372 98.3939 39.3012C98.9799 38.4653 98.7776 37.3129 97.9416 36.7268C92.3963 32.8383 85.875 30.783 79.0829 30.783C60.9501 30.783 46.1977 45.5351 46.1977 63.6681C46.1977 81.8011 60.9499 96.5533 79.0829 96.5533C97.2158 96.5533 111.968 81.8011 111.968 63.6681C111.968 55.9434 109.234 48.4354 104.27 42.5277Z" fill="black"/>
<path d="M79.8212 78.6416C79.608 78.8755 79.3483 78.9115 79.2122 78.912C79.2115 78.912 79.2105 78.912 79.2095 78.912C79.0728 78.912 78.815 78.8767 78.6018 78.6463L73.5331 73.1623C72.8398 72.4124 71.6704 72.3665 70.921 73.0596C70.1713 73.7526 70.1252 74.922 70.8182 75.6717L75.8872 81.1559C76.7413 82.0798 77.9514 82.609 79.2093 82.609H79.2251C80.4886 82.6043 81.7016 82.0663 82.5529 81.1322L97.1833 65.0793C101.558 60.2792 101.388 52.9225 96.7956 48.3301L96.7611 48.2956C92.0318 43.5663 84.3359 43.5663 79.6056 48.2956L79.0737 48.8277L78.5074 48.2636C73.778 43.5534 66.0901 43.5608 61.3693 48.2808C56.7447 52.9054 56.5998 60.29 61.0391 65.0931L65.4062 69.8173C66.0992 70.5667 67.2686 70.6128 68.0183 69.92C68.768 69.2268 68.8141 68.0574 68.1211 67.3079L63.754 62.5837C60.6674 59.2444 60.7682 54.1101 63.9837 50.8949C67.2654 47.613 72.6106 47.6078 75.899 50.8826L77.7722 52.7482C78.4946 53.4676 79.6623 53.4664 80.3839 52.7457L82.2199 50.9095C85.5085 47.6206 90.8594 47.6208 94.1473 50.9095L94.1818 50.944C97.3745 54.1365 97.4931 59.2518 94.4517 62.5889L79.8212 78.6416Z" fill="black"/>
<path d="M130.973 36.4372C131.76 35.7869 131.871 34.6221 131.221 33.835C130.571 33.0476 129.406 32.9369 128.619 33.5871L125.625 36.0602C124.839 36.7105 124.727 37.8753 125.378 38.6624C125.743 39.105 126.271 39.3338 126.803 39.3338C127.218 39.3338 127.635 39.195 127.98 38.9104L130.973 36.4372Z" fill="black"/>
<path d="M118.148 31.8201C118.342 31.8846 118.539 31.9154 118.733 31.9154C119.507 31.9154 120.228 31.4257 120.486 30.6511L121.788 26.7464C122.111 25.7779 121.587 24.731 120.619 24.4083C119.65 24.0853 118.603 24.6087 118.281 25.5773L116.979 29.482C116.657 30.4503 117.18 31.4972 118.148 31.8201Z" fill="black"/>
<path d="M134.017 46.3098H129.796C128.775 46.3098 127.948 47.1371 127.948 48.1581C127.948 49.1792 128.775 50.0065 129.796 50.0065H134.017C135.038 50.0065 135.865 49.1792 135.865 48.1581C135.865 47.1371 135.038 46.3098 134.017 46.3098Z" fill="black"/>
</svg>
