<svg width="164" height="164" viewBox="0 0 164 164" fill="none" xmlns="http://www.w3.org/2000/svg">
<circle cx="82" cy="82" r="82" fill="#A29BCD"/>
<path d="M112.35 37.8178C97.8699 37.8178 85.7825 48.0531 82.9226 61.683C82.7753 62.3853 81.7833 62.3858 81.6357 61.683C78.7758 48.0531 66.6884 37.8178 52.2084 37.8178C24.5649 37.8178 11.5675 71.9792 32.2199 90.3542L79.0585 132.028C80.8949 133.662 83.6637 133.662 85.5 132.028L132.339 90.3542C152.991 71.9792 139.994 37.8178 112.35 37.8178Z" fill="#FE646F"/>
<path d="M112.35 37.817C110.675 37.817 109.034 37.9556 107.434 38.2187C131.509 42.0927 141.681 73.1451 122.339 90.3534L77.2797 130.445L79.0586 132.027C80.8949 133.661 83.6637 133.661 85.5001 132.027L132.339 90.3534C152.991 71.9784 139.994 37.817 112.35 37.817Z" fill="#FD4755"/>
<path d="M112.35 37.8173C97.8699 37.8173 85.7825 48.0526 82.9226 61.6825C82.7753 62.3848 81.7833 62.3853 81.6357 61.6825C78.7758 48.0526 66.6884 37.8173 52.2084 37.8173C24.5649 37.8173 11.5675 71.9786 32.2199 90.3537L79.0585 132.028C80.8949 133.661 83.6637 133.661 85.5 132.028L132.339 90.3537C152.991 71.9786 139.994 37.8173 112.35 37.8173Z" fill="#FE646F"/>
<path d="M112.35 37.817C110.675 37.817 109.034 37.9556 107.434 38.2187C131.509 42.0927 141.681 73.1451 122.339 90.3534L77.2797 130.445L79.0586 132.027C80.8949 133.661 83.6637 133.661 85.5001 132.027L132.339 90.3534C152.991 71.9784 139.994 37.817 112.35 37.817Z" fill="#FD4755"/>
<path d="M77.8507 133.385C28.353 89.3451 30.0278 90.8011 30.0278 90.8011C23.7292 84.7484 20.2603 76.7012 20.2603 68.1416C20.2603 56.8813 26.2272 45.9257 36.2268 40.1676C37.0962 39.6669 38.207 39.9658 38.708 40.8355C39.2088 41.705 38.9098 42.816 38.0401 43.3168C29.3145 48.3413 23.8942 57.8535 23.8942 68.1416C23.8942 75.7031 26.9668 82.8198 32.5456 88.1808C32.5456 88.1808 30.8786 86.7282 80.2661 130.67C80.8213 131.164 81.536 131.436 82.279 131.436C83.0218 131.436 83.737 131.164 84.2922 130.67L99.2924 117.324C100.042 116.657 101.19 116.724 101.857 117.474C102.524 118.223 102.458 119.372 101.708 120.039L86.7076 133.385C84.1805 135.633 80.3729 135.629 77.8507 133.385ZM106.836 114.862C106.335 114.862 105.837 114.656 105.478 114.253C104.811 113.503 104.877 112.355 105.627 111.688L131.131 88.9962C136.416 84.2942 139.642 78.2473 140.461 71.5095C140.461 71.5081 140.461 71.5066 140.462 71.5052C142.312 56.2604 131.276 39.6339 112.35 39.6339C99.0549 39.6339 87.4269 49.0635 84.7009 62.0553C84.4575 63.2157 83.4615 64.0261 82.279 64.0261C81.0966 64.0261 80.1009 63.2154 79.8574 62.055C77.1315 49.0635 65.5034 39.6339 52.2085 39.6339C49.8748 39.6339 47.5857 39.8946 45.4049 40.4087C44.4278 40.6393 43.4498 40.0337 43.2194 39.0571C42.989 38.0803 43.5942 37.102 44.571 36.8717C47.0246 36.2931 49.5943 36 52.2083 36C65.702 36 77.7579 44.5056 82.279 57.2686C86.8118 44.4731 98.8902 36 112.35 36C132.919 36 146.238 54.063 144.069 71.9424C144.069 71.9441 144.069 71.9461 144.068 71.9478C143.141 79.5776 139.502 86.4115 133.546 91.711L108.043 114.402C107.696 114.711 107.265 114.862 106.836 114.862Z" fill="black"/>
</svg>
