<svg width="164" height="164" viewBox="0 0 164 164" fill="none" xmlns="http://www.w3.org/2000/svg">
<circle cx="82" cy="82" r="82" fill="#D86781"/>
<path d="M72.9034 133.779C70.8173 133.779 69.126 132.087 69.126 130.001V98.958C69.126 96.3603 67.4604 94.0932 64.9815 93.3168L51.5234 89.1014C49.5326 88.4778 48.4243 86.3585 49.0479 84.3676C49.6715 82.3767 51.7916 81.2684 53.7817 81.892L67.2397 86.1073C72.8869 87.8761 76.681 93.0405 76.681 98.958V130.001C76.6807 132.087 74.9897 133.779 72.9034 133.779Z" fill="#F5D7B7"/>
<path opacity="0.1" d="M66.4582 94.0178C65.3375 90.2955 63.3329 86.8785 60.5585 84.0146L53.7814 81.892C51.7913 81.2684 49.6712 82.3767 49.0476 84.3676C48.424 86.3585 49.5323 88.4778 51.5232 89.1014L64.9813 93.3168C65.5152 93.4841 66.0086 93.7238 66.4582 94.0178Z" fill="black"/>
<path d="M91.0965 133.779C89.0104 133.779 87.3191 132.087 87.3191 130.001V98.958C87.3191 93.0405 91.1132 87.8763 96.7603 86.1073L110.218 81.892C112.209 81.2684 114.329 82.3767 114.952 84.3676C115.576 86.3585 114.467 88.4778 112.476 89.1014L99.0183 93.3168C96.5394 94.0932 94.8738 96.3603 94.8738 98.958V130.001C94.8738 132.087 93.1828 133.779 91.0965 133.779Z" fill="#F5D7B7"/>
<path opacity="0.1" d="M97.5416 94.0178C98.6624 90.2955 100.667 86.8785 103.441 84.0146L110.218 81.892C112.208 81.2684 114.328 82.3767 114.952 84.3676C115.576 86.3585 114.467 88.4778 112.476 89.1014L99.0183 93.3168C98.4846 93.4841 97.9915 93.7238 97.5416 94.0178Z" fill="black"/>
<path d="M113.68 80.1771L98.6181 74.9121C95.4491 73.8046 92.7877 71.5885 91.1248 68.6724L87.5684 62.4367C86.3925 60.375 85.7743 58.0426 85.7743 55.6691V33.7884C85.7743 31.7544 84.2112 30.0042 82.1795 29.9087C80.0104 29.8067 78.2196 31.535 78.2196 33.6818V55.6696C78.2196 58.0428 77.6013 60.3755 76.4255 62.4369L72.8692 68.6724C71.2059 71.5885 68.545 73.8043 65.376 74.9121L50.4163 80.1411C48.4536 80.8271 47.3204 82.9536 47.9732 84.9274C48.5001 86.5204 49.9783 87.5211 51.5599 87.5211C51.9735 87.5211 52.394 87.4528 52.8066 87.3086L67.8688 82.0436C72.7588 80.3343 76.8655 76.9147 79.4317 72.4149L81.6671 68.4954C81.8128 68.24 82.181 68.24 82.3267 68.4954L84.5619 72.4144C87.1281 76.9144 91.2353 80.3343 96.1253 82.0436L111.188 87.3086C111.6 87.4528 112.02 87.5211 112.434 87.5211C113.995 87.5211 115.455 86.5458 115.999 84.9891C116.688 83.0198 115.65 80.8655 113.68 80.1771Z" fill="#38648C"/>
<path opacity="0.1" d="M102.363 83.7602C102.885 83.2377 102.992 82.8185 102.992 82.3495C102.992 81.8806 102.885 81.4611 102.363 80.9386C100.467 79.0434 98.9256 76.8913 97.7551 74.5648C98.0725 74.7032 98.3945 74.8329 98.7235 74.9479L113.683 80.1769C115.646 80.8629 116.779 82.9894 116.126 84.9633C115.599 86.5563 114.121 87.5569 112.54 87.5569C112.126 87.5569 111.705 87.4886 111.293 87.3444L102.032 84.1073C102.143 83.9923 102.249 83.8737 102.363 83.7602Z" fill="black"/>
<path opacity="0.1" d="M61.74 83.7244C61.2175 83.2019 61.1106 82.7827 61.1106 82.3137C61.1106 81.8448 61.2175 81.4253 61.74 80.9028C63.6352 79.0076 65.1769 76.8555 66.3474 74.529C66.03 74.6674 65.7081 74.7971 65.379 74.9121L50.4194 80.1411C48.4567 80.8271 47.3235 82.9536 47.9763 84.9275C48.5031 86.5205 49.9814 87.5211 51.563 87.5211C51.9766 87.5211 52.397 87.4528 52.8096 87.3086L62.0709 84.0715C61.9597 83.9563 61.8535 83.8379 61.74 83.7244Z" fill="black"/>
<path d="M18.9043 82.3137C18.9043 92.1899 21.5673 105.076 30.9775 114.487C38.3375 121.847 50.2706 121.847 57.6306 114.487C64.9906 107.127 64.9906 95.1939 57.6306 87.8339C55.5229 85.726 55.299 83.4741 55.299 82.3137C55.299 81.1534 55.5229 78.9015 57.6306 76.7938C64.9906 69.4338 64.9906 57.5007 57.6306 50.1408C50.2706 42.7808 38.3375 42.7808 30.9775 50.1408C21.5673 59.551 18.9043 72.4375 18.9043 82.3137Z" fill="#F28B74"/>
<path opacity="0.1" d="M27.6496 53.9648C20.9234 62.8445 18.9043 73.7185 18.9043 82.3137C18.9043 92.1899 21.5673 105.076 30.9778 114.487C38.3378 121.847 50.2709 121.847 57.6308 114.487C58.1986 113.919 58.7171 113.322 59.1972 112.704C34.0244 119.889 15.5713 81.6698 27.6496 53.9648Z" fill="black"/>
<path d="M145.096 82.3137C145.096 92.1899 142.433 105.076 133.022 114.487C125.662 121.847 113.729 121.847 106.369 114.487C99.0092 107.127 99.0092 95.1939 106.369 87.8339C108.477 85.726 108.701 83.4741 108.701 82.3137C108.701 81.1534 108.477 78.9015 106.369 76.7938C99.0092 69.4338 99.0092 57.5007 106.369 50.1408C113.729 42.7808 125.662 42.7808 133.022 50.1408C142.433 59.551 145.096 72.4375 145.096 82.3137Z" fill="#F28B74"/>
<path opacity="0.1" d="M120.269 110.478C108.594 109.632 105.05 97.1083 107.346 86.67C107.076 87.0577 106.755 87.448 106.369 87.8337C99.0092 95.1936 99.0092 107.127 106.369 114.487C113.729 121.847 125.662 121.847 133.022 114.487C140.931 106.578 144.073 96.2159 144.875 87.2474C137.086 105.462 132.473 111.363 120.269 110.478Z" fill="black"/>
<path d="M141.999 59.5381C141.536 58.5941 140.396 58.2036 139.451 58.6672C138.507 59.1303 138.117 60.2714 138.58 61.2156C142.391 68.9844 143.191 76.9769 143.191 82.3137C143.191 89.5257 141.695 103.121 131.676 113.14C128.476 116.34 124.221 118.103 119.696 118.103C115.171 118.103 110.916 116.34 107.716 113.14C104.516 109.94 102.754 105.686 102.754 101.16C102.754 98.275 103.473 95.5016 104.821 93.0397C104.861 92.9793 104.895 92.9161 104.928 92.8516C105.677 91.5239 106.608 90.2879 107.716 89.1804C108.378 88.5179 108.929 87.7951 109.367 87.025C109.374 87.0128 109.382 87.0014 109.388 86.9889C109.497 86.797 109.599 86.6025 109.693 86.4047C111.667 87.6049 112.849 89.4401 113.431 90.5761C113.768 91.2345 114.435 91.6128 115.127 91.6128C115.419 91.6128 115.716 91.5453 115.994 91.4031C116.93 90.9237 117.3 89.7763 116.821 88.8401C115.357 85.9814 113.181 83.8042 110.599 82.572C110.601 82.4859 110.605 82.4003 110.605 82.3137C110.605 81.8377 110.571 81.3695 110.505 80.9104C113.13 79.6873 115.335 77.4989 116.821 74.5963C117.3 73.6601 116.93 72.5127 115.993 72.0333C115.057 71.5537 113.91 71.9241 113.431 72.8605C112.795 74.1021 111.465 76.1377 109.196 77.3103C109.109 77.1701 109.018 77.0317 108.924 76.8951C108.902 76.8621 108.879 76.8296 108.855 76.7981C108.52 76.3256 108.142 75.8734 107.716 75.4473C101.11 68.8415 101.11 58.0931 107.716 51.4872C110.915 48.2872 115.17 46.5249 119.695 46.5249C124.221 46.5249 128.476 48.2872 131.676 51.4875C132.491 52.303 133.277 53.1716 134.012 54.0695C134.678 54.8835 135.878 55.0031 136.692 54.3368C137.506 53.6706 137.626 52.4709 136.96 51.6571C136.145 50.6618 135.273 49.6987 134.369 48.7943C126.278 40.7033 113.113 40.7036 105.023 48.7943C98.1959 55.6211 97.1295 66.0599 101.823 74.0153L99.2466 73.1147C96.5112 72.1585 94.2144 70.2461 92.7791 67.7291L89.2226 61.4934C88.2123 59.7222 87.6786 57.7084 87.6786 55.6693V33.7884C87.6786 30.689 85.3026 28.1492 82.2689 28.0065C80.6964 27.9329 79.2096 28.4881 78.0751 29.5705C76.9567 30.6377 76.315 32.136 76.315 33.6818V55.6696C76.315 57.7084 75.7811 59.7224 74.771 61.4937L71.2151 67.7289C69.7795 70.2458 67.4824 72.1585 64.7473 73.1145L62.1834 74.0105C64.0544 70.8501 65.0548 67.2358 65.0548 63.4668C65.0548 57.924 62.8963 52.7131 58.9771 48.7938C55.0578 44.8745 49.8468 42.7158 44.3041 42.7158C38.7613 42.7158 33.5501 44.8742 29.6311 48.7938C18.641 59.7844 17 74.5125 17 82.3137C17 89.0854 18.2718 102.033 26.7899 112.661C27.4475 113.481 28.6462 113.614 29.4668 112.956C30.2874 112.298 30.4195 111.1 29.7618 110.279C21.9717 100.559 20.8086 88.5857 20.8086 82.3137C20.8086 75.1018 22.3046 61.5069 32.3243 51.4872C35.5242 48.2872 39.7787 46.5249 44.3043 46.5249C48.8297 46.5249 53.0844 48.2872 56.2844 51.4872C59.4844 54.6872 61.2467 58.9417 61.2467 63.4673C61.2467 67.9929 59.4846 72.2474 56.2844 75.4473C55.8588 75.8729 55.4813 76.3241 55.1471 76.7956C55.123 76.8268 55.1007 76.8591 55.0786 76.8916C54.9834 77.0294 54.8917 77.1688 54.8044 77.3103C52.5347 76.1377 51.205 74.1022 50.5692 72.8603C50.0898 71.9241 48.9422 71.5542 48.0063 72.0333C47.0701 72.5127 46.6999 73.6601 47.1793 74.5963C48.6657 77.4989 50.8703 79.6873 53.4955 80.9101C53.4292 81.3695 53.3952 81.8377 53.3952 82.3135C53.3952 82.4001 53.3992 82.4856 53.4013 82.572C50.8193 83.8042 48.6431 85.9812 47.1793 88.8401C46.6999 89.7763 47.0704 90.9237 48.0063 91.4031C48.2843 91.5453 48.5806 91.6128 48.8726 91.6128C49.5647 91.6128 50.232 91.2342 50.5692 90.5761C51.1509 89.4401 52.3326 87.6049 54.307 86.4047C54.406 86.6126 54.5144 86.817 54.6292 87.0186C54.6434 87.0443 54.6578 87.0699 54.6731 87.0948C55.1052 87.8387 55.642 88.538 56.2841 89.1801C57.3912 90.2872 58.3215 91.5224 59.0707 92.8493C59.1037 92.9151 59.1393 92.9796 59.1797 93.0413C60.5274 95.5026 61.2462 98.2758 61.2462 101.16C61.2462 105.686 59.4841 109.94 56.2839 113.14C50.8813 118.543 42.4874 119.662 35.8718 115.861C34.9598 115.337 33.7959 115.651 33.2718 116.563C32.748 117.475 33.0626 118.639 33.9744 119.163C37.1883 121.009 40.744 121.908 44.2782 121.908C49.6564 121.908 54.9841 119.826 58.9768 115.833C62.8961 111.914 65.0546 106.703 65.0546 101.16C65.0546 99.0583 64.7425 97.0045 64.1433 95.0502L64.4117 95.1342C66.092 95.6606 67.2211 97.1972 67.2211 98.958V130.001C67.2211 133.134 69.7698 135.683 72.9028 135.683C76.0357 135.683 78.5847 133.134 78.5847 130.001V98.958C78.5847 92.2036 74.2541 86.3092 67.8084 84.2899L67.4948 84.1916L68.4968 83.8415C73.8207 81.9804 78.2914 78.2573 81.0854 73.3585L81.9964 71.7611L82.9072 73.358C85.7014 78.2573 90.1722 81.9804 95.4964 83.8415L96.5011 84.1926L96.1906 84.2899C89.7449 86.3089 85.4145 92.2036 85.4145 98.958V130.001C85.4145 133.134 87.9632 135.683 91.0962 135.683C94.2291 135.683 96.7778 133.134 96.7778 130.001V98.958C96.7778 97.1972 97.9067 95.6603 99.5873 95.1342L99.8557 95.0502C99.2565 97.0045 98.9444 99.0583 98.9444 101.16C98.9444 106.703 101.103 111.914 105.022 115.833C109.068 119.879 114.38 121.902 119.695 121.902C125.008 121.901 130.323 119.878 134.368 115.833C145.359 104.843 147 90.1147 147 82.3137C147 76.5737 146.132 67.9629 141.999 59.5381ZM74.7766 98.958V130.001C74.7766 131.034 73.9362 131.874 72.9033 131.874C71.8704 131.874 71.0302 131.034 71.0302 130.001V98.958C71.0302 95.5235 68.8281 92.5264 65.5504 91.4996L62.0564 90.4052C61.3201 89.1946 60.4522 88.0548 59.4643 86.9988L61.4729 86.2968L66.6702 87.9246C71.519 89.4432 74.7766 93.8774 74.7766 98.958ZM86.2159 71.4712L83.9807 67.5519C83.575 66.8409 82.8145 66.3994 81.9962 66.3997C81.1778 66.3999 80.4177 66.8414 80.0127 67.5521L77.777 71.4714C75.4386 75.572 71.6962 78.6882 67.2399 80.2459L57.3711 83.6955C57.2637 83.2517 57.203 82.7921 57.203 82.3135C57.203 81.3106 57.4409 80.3825 57.9104 79.5388L66.0039 76.7098C69.6066 75.4504 72.6321 72.9311 74.5232 69.6156L78.0792 63.3805C79.4165 61.0354 80.1234 58.3691 80.1234 55.6696V33.6818C80.1234 33.1646 80.3296 32.6832 80.7038 32.3262C81.0778 31.9695 81.5712 31.7866 82.0894 31.8108C83.071 31.857 83.8695 32.7441 83.8695 33.7884V55.6691C83.8695 58.3686 84.5764 61.0351 85.914 63.3802L89.4702 69.6156C91.3605 72.9309 94.3861 75.4504 97.9895 76.7098L106.091 79.5413C106.559 80.3846 106.796 81.3116 106.796 82.3135C106.796 82.7929 106.735 83.2532 106.628 83.6975L96.7532 80.2462C92.2972 78.6885 88.5548 75.5723 86.2159 71.4712ZM98.4491 91.4996C95.1716 92.5264 92.9695 95.5235 92.9695 98.958V130.001C92.9695 131.034 92.1291 131.874 91.0964 131.874C90.0638 131.874 89.2234 131.034 89.2234 130.001V98.958C89.2234 93.8774 92.481 89.4432 97.3296 87.9246L102.524 86.2978L104.534 87.0003C103.547 88.0558 102.679 89.1951 101.943 90.405L98.4491 91.4996Z" fill="black"/>
</svg>
