<svg width="164" height="164" viewBox="0 0 164 164" fill="none" xmlns="http://www.w3.org/2000/svg">
<circle cx="82" cy="82" r="82" fill="#2DBAAA"/>
<path d="M96.4215 33.1901C88.3728 31.0571 78.0324 32.4218 70.8678 37.8621H67.3603C62.3438 37.8621 58.2771 33.7926 58.2771 28.7723V21.9911C58.2771 20.3526 56.9491 19.0244 55.3108 19.0244H51.4308C49.7926 19.0244 48.4646 20.3526 48.4646 21.9911V30.7815C48.4646 39.5482 55.1352 46.7545 63.6738 47.5979C63.2262 48.8612 62.8823 50.2046 62.6614 51.6336C59.0666 74.883 92.8583 78.4978 68.2968 99.5576C64.8632 102.502 63.2199 106.555 63.2179 110.565H56.4936C49.6068 110.565 44.024 116.152 44.024 123.044V141.57C44.024 143.209 45.3521 144.537 46.9903 144.537H50.2389C51.8772 144.537 53.2052 143.209 53.2052 141.57V125.875C53.2052 123.709 54.9611 121.952 57.1272 121.952H68.8022C71.1656 123.743 74.4846 124.879 77.3469 125.459C92.581 128.549 112.369 112.25 120.447 88.9199C129.026 64.1421 114.352 37.9413 96.4215 33.1901Z" fill="#FF5A7F"/>
<path d="M96.4216 33.1901C88.3728 31.0571 78.0325 32.4218 70.8679 37.8622C70.8679 37.8622 70.196 40.3595 73.4566 39.4338C78.9662 37.8697 84.9271 37.8293 89.9835 39.1692C102.207 42.4084 112.918 55.6166 115.779 71.5466C116.088 73.2699 117.9 74.8681 118.017 76.6458C118.146 78.594 116.562 80.7265 116.44 82.7172C115.659 95.52 108.61 109.085 100.252 118.173C108.652 111.594 116.181 101.238 120.447 88.9202C129.026 64.1421 114.352 37.9416 96.4216 33.1901Z" fill="#FF8595"/>
<path d="M87.1931 84.7999C85.9139 84.9474 84.8918 85.9745 84.8018 87.259C84.4634 92.0831 80.9584 97.3896 75.7046 102.134C64.3713 112.369 78.1007 129.454 98.661 108.973C105.184 102.476 108.819 96.5892 110.671 91.305C111.406 89.2092 109.402 87.1661 107.289 87.8496C104.492 88.7548 100.8 89.1614 97.1379 87.2319C92.5686 84.8244 89.238 84.564 87.1931 84.7999Z" fill="#FFD3DD"/>
<path d="M91.2225 95.8553C92.2902 95.8553 93.1558 94.9897 93.1558 93.922C93.1558 92.8543 92.2902 91.9887 91.2225 91.9887C90.1548 91.9887 89.2892 92.8543 89.2892 93.922C89.2892 94.9897 90.1548 95.8553 91.2225 95.8553Z" fill="#FFA9C1"/>
<path d="M83.494 111.178C84.5617 111.178 85.4273 110.312 85.4273 109.245C85.4273 108.177 84.5617 107.311 83.494 107.311C82.4262 107.311 81.5607 108.177 81.5607 109.245C81.5607 110.312 82.4262 111.178 83.494 111.178Z" fill="#FFA9C1"/>
<path d="M84.4786 103.589C85.5463 103.589 86.4119 102.724 86.4119 101.656C86.4119 100.588 85.5463 99.7229 84.4786 99.7229C83.4109 99.7229 82.5453 100.588 82.5453 101.656C82.5453 102.724 83.4109 103.589 84.4786 103.589Z" fill="#FFA9C1"/>
<path d="M99.9926 97.7888C101.06 97.7888 101.926 96.9233 101.926 95.8555C101.926 94.7878 101.06 93.9222 99.9926 93.9222C98.9249 93.9222 98.0593 94.7878 98.0593 95.8555C98.0593 96.9233 98.9249 97.7888 99.9926 97.7888Z" fill="#FFA9C1"/>
<path d="M93.0208 105.523C94.0886 105.523 94.9541 104.658 94.9541 103.59C94.9541 102.522 94.0886 101.656 93.0208 101.656C91.9531 101.656 91.0875 102.522 91.0875 103.59C91.0875 104.658 91.9531 105.523 93.0208 105.523Z" fill="#FFA9C1"/>
<path d="M114.732 78.0816C115.312 78.0816 115.781 77.437 115.781 76.6418C115.781 75.8465 115.312 75.2019 114.732 75.2019C114.153 75.2019 113.683 75.8465 113.683 76.6418C113.683 77.437 114.153 78.0816 114.732 78.0816Z" fill="#FF8595"/>
<path d="M96.9401 31.2333C87.8594 28.8265 77.4502 30.6366 70.2021 35.8375H67.3604C63.468 35.8375 60.3013 32.6681 60.3013 28.7721V21.9911C60.3013 19.239 58.0626 17 55.3109 17H51.4309C48.6792 17 46.4405 19.239 46.4405 21.9911V30.7816C46.4405 39.7031 52.6336 47.2665 61.0807 49.2193C56.522 67.8288 74.5518 75.874 75.2672 84.977C75.5655 88.7722 72.932 92.9169 66.9795 98.0206C63.8238 100.727 61.8226 104.481 61.3193 108.541H56.4937C48.5019 108.541 42 115.047 42 123.044V141.57C41.9997 144.322 44.2385 146.561 46.9901 146.561H50.239C52.9907 146.561 55.2294 144.322 55.2294 141.57V125.875C55.2294 124.828 56.0809 123.977 57.1273 123.977H68.1466C71.2313 126.117 76.5248 127.866 81.2179 127.866C88.1557 127.865 95.6979 124.684 102.882 118.647C111.444 111.455 118.361 101.133 122.359 89.583C131.403 63.4642 115.81 36.2335 96.9401 31.2333ZM118.534 88.258C111.637 108.179 91.6488 130.508 72.3895 121.752C67.3682 119.469 73.9508 119.928 57.1273 119.928C53.8485 119.928 51.1811 122.596 51.1811 125.875V141.57C51.1811 142.09 50.7586 142.513 50.239 142.513H46.9901C46.4706 142.513 46.048 142.09 46.048 141.57V123.044C46.048 117.279 50.734 112.59 56.4937 112.59H63.218C64.3354 112.59 65.2416 111.684 65.2421 110.566C65.2439 106.874 66.7966 103.51 69.6143 101.094C97.0274 77.5894 57.0362 72.3953 65.5817 48.2739C66.0207 47.0347 65.1791 45.7123 63.8728 45.5832C56.2426 44.8296 50.4888 38.4662 50.4888 30.7816V21.9911C50.4888 21.4716 50.9114 21.0488 51.4309 21.0488H55.3109C55.8304 21.0488 56.253 21.4714 56.253 21.9911V28.7724C56.253 34.9007 61.2366 39.9878 67.3604 39.8866C70.4499 39.8354 71.1999 40.1515 72.0916 39.4746C78.3035 34.7583 87.8726 33.0196 95.9031 35.1472C112.377 39.5126 126.841 64.2656 118.534 88.258Z" fill="#231F20"/>
<path d="M106.666 85.9237C103.513 86.9435 100.625 86.7812 98.0811 85.4411C93.0171 82.7729 89.2378 82.5262 86.9611 82.7891C84.6976 83.0503 82.9401 84.8707 82.7825 87.1176C82.4975 91.1777 79.5022 95.9773 74.3481 100.632C61.1121 112.585 77.351 133.058 100.089 110.408C106.239 104.282 110.442 98.0807 112.581 91.9748C113.869 88.3016 110.37 84.7247 106.666 85.9237ZM108.761 90.6354C105 101.37 89.0255 119.338 78.2051 116.223C73.0889 114.751 71.6857 108.491 77.0613 103.637C82.9963 98.2768 86.4626 92.5108 86.8211 87.401C86.8422 87.1019 87.1018 86.8483 87.4249 86.8109C87.5332 86.8255 90.7624 86.1608 96.1946 89.0228C99.6895 90.8645 103.741 91.1251 107.912 89.7756C108.437 89.6058 108.942 90.119 108.761 90.6354Z" fill="#231F20"/>
<path d="M93.9922 39.3804C92.9028 39.1299 91.8162 39.8096 91.5657 40.899C91.3149 41.9886 91.9946 43.0752 93.084 43.326C104.016 45.8433 109.053 55.2689 111.718 66.102C111.985 67.1881 113.083 67.8513 114.167 67.5838C115.252 67.3166 115.916 66.2201 115.649 65.1343C112.004 50.321 104.92 41.8968 93.9922 39.3804Z" fill="#231F20"/>
<path d="M86.492 42.3275C87.6098 42.3275 88.5159 41.4214 88.5159 40.3036C88.5159 39.1859 87.6098 38.2797 86.492 38.2797C85.3743 38.2797 84.4681 39.1859 84.4681 40.3036C84.4681 41.4214 85.3743 42.3275 86.492 42.3275Z" fill="#231F20"/>
</svg>
