<svg width="164" height="164" viewBox="0 0 164 164" fill="none" xmlns="http://www.w3.org/2000/svg">
<circle cx="82" cy="82" r="82" fill="#82CED4"/>
<path d="M72.8162 78.4554V112.79C72.8162 119.831 67.71 125.834 60.7591 126.964C60.2181 127.052 59.713 127.291 59.3018 127.654L51.9318 134.161C48.0854 137.558 42.1586 136.947 39.0857 132.838C34.1109 126.184 31.4224 118.099 31.4224 109.792C31.4224 93.3252 36.1254 77.2013 44.9781 63.3171L48.9205 57.134C51.7599 52.6808 57.3577 50.8652 62.2702 52.8045C64.7107 53.7678 66.7279 55.5696 67.9595 57.8863C69.3989 60.5936 70.5251 63.4426 71.3312 66.3777L72.8162 78.4554Z" fill="#F79595"/>
<path d="M50.5272 131.52C45.5522 124.867 42.8637 116.782 42.8637 108.474C42.8637 92.0076 47.5667 75.8837 56.4194 61.9995L60.3618 55.8164C61.0498 54.7375 61.9035 53.8137 62.8664 53.0604C62.6713 52.9698 62.4715 52.8839 62.2705 52.8047C57.358 50.8655 51.7601 52.681 48.9208 57.1342L44.9783 63.3171C36.1256 77.2012 31.4226 93.3252 31.4226 109.792C31.4226 118.099 34.1111 126.184 39.0861 132.838C42.1591 136.947 48.0856 137.558 51.9322 134.161L52.6406 133.536C51.8507 133.002 51.133 132.33 50.5272 131.52Z" fill="#F37C7C"/>
<path d="M87.281 78.4554V112.79C87.281 119.831 92.3873 125.834 99.3381 126.964C99.8791 127.052 100.384 127.291 100.795 127.654L108.165 134.161C112.012 137.558 117.939 136.947 121.012 132.838C125.987 126.184 128.675 118.099 128.675 109.792C128.675 93.3252 123.972 77.2013 115.119 63.3171L111.177 57.134C108.338 52.6808 102.74 50.8652 97.8272 52.8045C95.3867 53.7678 93.3696 55.5696 92.138 57.8863C90.6986 60.5936 89.5724 63.4426 88.7663 66.3777L87.281 78.4554Z" fill="#F79595"/>
<path d="M84.6211 28.8489V57.7599C84.6211 60.3165 85.4645 62.8016 87.0207 64.8301L93.9846 73.9081C94.611 74.7244 94.5917 75.8649 93.9385 76.6598L91.2955 79.8757C90.4993 80.8445 89.0579 80.9587 88.1191 80.1272L80.9148 73.7471C80.1951 73.1099 79.1164 73.099 78.3842 73.7216L70.6866 80.267C69.8105 81.0118 68.4855 80.8511 67.8131 79.9182L65.3422 76.4903C64.8337 75.785 64.848 74.8296 65.3772 74.1399L72.5189 64.8299C74.0751 62.8014 74.9185 60.3163 74.9185 57.7597V28.8489C74.9185 28.1819 75.4593 27.6411 76.1263 27.6411H83.4137C84.0803 27.6411 84.6211 28.1819 84.6211 28.8489Z" fill="#FFE5C2"/>
<path d="M118.474 36.4555L106.993 48.0908C106.714 48.3733 106.828 48.8501 107.205 48.9758L110.499 50.0756C110.809 50.179 110.955 50.5337 110.808 50.8254L105.36 61.6236C105.093 62.1528 105.756 62.6599 106.197 62.2641L120.883 49.0841C121.187 48.8118 121.087 48.3141 120.703 48.1792L117.278 46.9775C117.015 46.8852 116.866 46.6066 116.937 46.3367L119.374 36.967C119.512 36.4363 118.859 36.0652 118.474 36.4555Z" fill="#FEF0AE"/>
<path d="M133.484 61.1534L120.434 64.222C120.117 64.2965 119.988 64.6775 120.195 64.929L122.002 67.1305C122.173 67.3378 122.119 67.6476 121.89 67.7861L113.395 72.9063C112.978 73.1574 113.217 73.7985 113.696 73.7161L129.645 70.9738C129.975 70.9172 130.123 70.5283 129.915 70.2668L128.061 67.9378C127.919 67.7589 127.937 67.5007 128.104 67.3439L133.885 61.9015C134.213 61.5932 133.921 61.0504 133.484 61.1534Z" fill="#FEF0AE"/>
<path d="M41.3392 69.5635C41.5898 69.7015 41.861 69.7671 42.1282 69.7671C42.7068 69.7671 43.268 69.4601 43.5667 68.9173C44.4607 67.2923 45.401 65.7049 46.3612 64.199L50.3034 58.016C52.7153 54.233 57.4953 52.6827 61.6682 54.3303C63.7439 55.1497 65.4639 56.6859 66.5114 58.6563C67.7561 60.9977 68.7664 63.4776 69.5252 66.0373L63.1837 74.3041C62.6324 75.023 62.7682 76.0525 63.487 76.6038C63.7846 76.8321 64.1356 76.9428 64.4839 76.9428C64.9766 76.9428 65.4634 76.7219 65.7866 76.3007L73.82 65.8286C75.5856 63.5266 76.5581 60.6612 76.5581 57.7601V27.6411C76.5581 26.7353 75.824 26.001 74.918 26.001C74.012 26.001 73.2779 26.7353 73.2779 27.6411V57.7599C73.2779 59.5251 72.7989 61.2726 71.9133 62.7929C71.2135 60.8396 70.3768 58.939 69.4078 57.1165C67.9945 54.458 65.6736 52.3849 62.8727 51.2792C57.2409 49.0563 50.7924 51.148 47.5375 56.2525L43.5953 62.4356C42.5975 64.0007 41.6208 65.6495 40.6928 67.336C40.256 68.1294 40.5454 69.1268 41.3392 69.5635Z" fill="black"/>
<path d="M121.81 77.3454C120.964 77.6692 120.541 78.6177 120.865 79.4635C124.588 89.1871 126.476 99.391 126.476 109.792C126.476 117.692 123.871 125.528 119.14 131.855C117.931 133.472 116.159 134.476 114.152 134.683C112.144 134.889 110.205 134.268 108.692 132.932L101.322 126.425C100.679 125.856 99.8903 125.483 99.0427 125.345C92.8542 124.339 88.3626 119.059 88.3626 112.79V103.409C88.3626 102.503 87.6285 101.769 86.7225 101.769C85.8165 101.769 85.0824 102.503 85.0824 103.409V112.79C85.0824 120.676 90.7323 127.318 98.5168 128.583C98.7525 128.621 98.9721 128.725 99.1512 128.883L106.521 135.391C108.43 137.076 110.9 138 113.427 138C113.78 138 114.134 137.982 114.488 137.946C117.375 137.648 120.028 136.144 121.766 133.819C126.919 126.929 129.756 118.395 129.756 109.791C129.756 98.9882 127.795 88.3897 123.928 78.2903C123.604 77.4447 122.656 77.0215 121.81 77.3454Z" fill="black"/>
<path d="M85.0826 96.4193C85.0826 97.3251 85.8167 98.0595 86.7227 98.0595C87.6287 98.0595 88.3629 97.3251 88.3629 96.4193V82.5343L88.7501 82.8772C89.4285 83.4777 90.4651 83.4147 91.0653 82.7368C91.6661 82.0587 91.6031 81.0221 90.925 80.4216L82.002 72.5193C80.6794 71.3478 78.6671 71.3277 77.3213 72.4718L67.998 80.3995C67.3081 80.9865 67.2243 82.0215 67.811 82.7114C68.1353 83.093 68.597 83.2892 69.0615 83.2892C69.4369 83.2892 69.8144 83.1608 70.1229 82.8986L71.1761 82.0031V112.79C71.1761 119.059 66.6846 124.34 60.4963 125.345C59.6485 125.483 58.8603 125.856 58.2165 126.425L50.8465 132.932C49.3336 134.268 47.3963 134.89 45.3873 134.683C43.3793 134.476 41.6082 133.472 40.3993 131.855C35.6681 125.528 33.0625 117.692 33.0625 109.792C33.0625 98.2285 35.3757 86.9757 39.9377 76.346C40.295 75.5137 39.9099 74.5493 39.0774 74.192C38.2442 73.8342 37.2802 74.22 36.9233 75.0523C32.1851 86.0931 29.7825 97.7811 29.7825 109.792C29.7825 118.396 32.6201 126.929 37.7725 133.82C39.5106 136.144 42.1637 137.648 45.0509 137.946C45.4048 137.982 45.7586 138 46.1118 138C48.6389 138 51.1087 137.076 53.0176 135.391L60.3878 128.883C60.5667 128.725 60.7863 128.621 61.0222 128.583C68.8065 127.318 74.4564 120.676 74.4564 112.79V79.2138L79.4461 74.9709C79.5556 74.8778 79.7194 74.8795 79.8268 74.9749L85.0824 79.6293V96.4193H85.0826Z" fill="black"/>
<path d="M93.7523 76.3003C94.0755 76.7212 94.5623 76.9423 95.055 76.9423C95.4031 76.9423 95.7543 76.8319 96.0522 76.6034C96.7708 76.0521 96.9064 75.0225 96.3553 74.3037L90.0137 66.037C90.7725 63.4774 91.7828 60.9975 93.0276 58.6561C94.0751 56.6857 95.795 55.1495 97.8707 54.3301C98.9506 53.9039 100.088 53.6836 101.251 53.6758C102.157 53.6696 102.886 52.9303 102.88 52.0245C102.874 51.1187 102.136 50.394 101.229 50.3955C99.6589 50.4062 98.124 50.7034 96.6662 51.279C93.8653 52.3847 91.5445 54.4578 90.1311 57.1163C89.1619 58.9392 88.3263 60.8407 87.6268 62.7946C86.7404 61.2741 86.2611 59.5258 86.2611 57.7597V48.3779C86.2611 47.4722 85.527 46.7378 84.621 46.7378C83.715 46.7378 82.9808 47.4722 82.9808 48.3779V57.7597C82.9808 60.6609 83.9533 63.5263 85.719 65.8282L93.7523 76.3003Z" fill="black"/>
<path d="M84.6207 43.0283C85.5267 43.0283 86.2608 42.294 86.2608 41.3882V27.6411C86.2608 26.7353 85.5267 26.001 84.6207 26.001C83.7147 26.001 82.9806 26.7353 82.9806 27.6411V41.3882C82.9806 42.294 83.7149 43.0283 84.6207 43.0283Z" fill="black"/>
<path d="M67.1496 89.1138C68.0556 89.1138 68.7897 88.3795 68.7897 87.4737C68.7897 86.5679 68.0556 85.8336 67.1496 85.8336C62.2368 85.8336 58.24 81.8367 58.24 76.924C58.24 76.0182 57.5058 75.2838 56.5998 75.2838C55.6938 75.2838 54.9597 76.0182 54.9597 76.924C54.9597 83.6454 60.4281 89.1138 67.1496 89.1138Z" fill="black"/>
<path d="M52.7255 84.8912C52.8573 83.9951 52.2376 83.1619 51.3412 83.0302C50.4466 82.899 49.6116 83.5181 49.4802 84.4147L49.4157 84.8534C49.1968 86.3413 49.635 87.8476 50.6182 88.9856C51.6012 90.1239 53.0277 90.7767 54.5316 90.7767C55.4376 90.7767 56.1717 90.0423 56.1717 89.1365C56.1717 88.2308 55.4376 87.4964 54.5316 87.4964C53.9735 87.4964 53.4655 87.264 53.1007 86.8417C52.736 86.4194 52.5798 85.8828 52.661 85.3304L52.7255 84.8912Z" fill="black"/>
<path d="M102.72 75.2838C101.814 75.2838 101.08 76.0182 101.08 76.924C101.08 81.8367 97.0835 85.8336 92.1708 85.8336C91.2648 85.8336 90.5306 86.5679 90.5306 87.4737C90.5306 88.3795 91.2648 89.1138 92.1708 89.1138C98.8922 89.1138 104.361 83.6454 104.361 76.924C104.361 76.0182 103.626 75.2838 102.72 75.2838Z" fill="black"/>
<path d="M104.789 90.7767C106.293 90.7767 107.719 90.1239 108.702 88.9857C109.685 87.8474 110.124 86.3413 109.905 84.8536L109.84 84.4145C109.709 83.5181 108.874 82.8995 107.979 83.03C107.083 83.1617 106.463 83.9949 106.595 84.891L106.659 85.3304C106.741 85.8823 106.584 86.4192 106.22 86.8415C105.855 87.2637 105.347 87.4962 104.789 87.4962C103.883 87.4962 103.149 88.2305 103.149 89.1363C103.149 90.0421 103.883 90.7767 104.789 90.7767Z" fill="black"/>
<path d="M104.516 63.5933C104.914 63.8981 105.379 64.049 105.842 64.049C106.359 64.049 106.875 63.8596 107.293 63.4848L121.979 50.3045C122.549 49.7935 122.81 49.0097 122.66 48.259C122.51 47.5085 121.968 46.8848 121.246 46.6313L118.78 45.766L120.961 37.3793C121.213 36.4129 120.798 35.4323 119.93 34.9392C119.062 34.4465 118.007 34.5924 117.306 35.3031L105.825 46.9384C105.294 47.477 105.082 48.2378 105.258 48.9734C105.434 49.7093 105.968 50.2914 106.685 50.5311L108.769 51.2265L103.896 60.8847C103.418 61.8337 103.673 62.9475 104.516 63.5933ZM116.751 40.5366L115.35 45.9237C115.067 47.0105 115.675 48.1531 116.735 48.5253L118.4 49.1094L109.466 57.1268L112.273 51.5639C112.557 50.9993 112.582 50.3402 112.341 49.7554C112.1 49.1707 111.618 48.7206 111.018 48.5201L109.405 47.9815L116.751 40.5366Z" fill="black"/>
<path d="M135.416 60.5969C134.972 59.7694 134.022 59.3421 133.108 59.5568L120.059 62.6254C119.355 62.7907 118.797 63.2985 118.565 63.9832C118.333 64.6681 118.469 65.4107 118.927 65.9697L119.854 67.0979L112.548 71.5013C111.678 72.0255 111.318 73.0563 111.673 74.0083C111.983 74.8425 112.749 75.3639 113.607 75.3639C113.728 75.3639 113.85 75.3536 113.974 75.3322L129.924 72.5899C130.645 72.4659 131.255 71.964 131.515 71.2806C131.775 70.5972 131.654 69.817 131.199 69.2451L130.033 67.7804L135.01 63.0953C135.694 62.4519 135.861 61.4244 135.416 60.5969ZM126.779 68.9591L127.369 69.7011L119.703 71.0191L122.736 69.1909C123.254 68.879 123.609 68.3586 123.712 67.7631C123.815 67.1674 123.654 66.5577 123.27 66.0895L122.685 65.3775L129.504 63.7741L126.98 66.1501C126.199 66.8857 126.11 68.1198 126.779 68.9591ZM133.857 62.7504L133.859 62.75H133.859C133.859 62.75 133.858 62.7502 133.857 62.7504Z" fill="black"/>
</svg>
