<svg width="227" height="87" viewBox="0 0 227 87" fill="none" xmlns="http://www.w3.org/2000/svg">
<path d="M58.1497 49.138C48.9229 49.6598 43.5496 57.8242 38.7874 59.7579C32.5526 62.2901 28.5892 57.7628 30.3281 55.4608C33.2888 51.5168 37.8161 59.4817 42.1868 55.2306C47.607 49.9668 50.8497 47.1276 53.9984 46.0994C50.3641 43.6746 47.2937 39.6999 45.9621 36.7073C45.9621 36.7073 44.0823 42.0326 39.1477 45.2247C36.2339 47.0969 32.8189 48.1559 28.2916 49.9361C13.5192 55.7064 19.6443 70.1936 30.9547 70.1936C33.0852 70.1936 34.871 69.6718 36.4376 68.9659C44.1919 64.6842 44.2859 60.5252 49.5338 58.1005C55.2203 55.4762 59.8729 59.9728 58.0714 62.2287C54.7974 66.3263 51.1003 58.8525 46.949 63.1188C46.2911 63.7941 45.6958 64.3772 45.1475 64.9144C45.4138 64.8837 45.6958 64.8683 45.9778 64.853C51.0377 64.8837 54.1238 70.1783 60.9852 70.1936C68.8335 70.209 73.2355 62.3054 70.7134 56.044C69.7734 53.7113 67.8779 51.6242 64.8232 50.243C63.1157 49.4603 60.6875 48.9999 58.1497 49.138Z" fill="#D3E0EA"/>
<path d="M54.1864 28.3896C46.6044 24.8599 50.3954 22.7421 51.5703 19.9029C52.2753 18.1841 52.8079 16.9257 52.1969 14.3168C51.398 10.9098 48.6409 9.35982 46.0561 9.43655C43.5653 9.49794 41.0589 11.0786 40.1973 14.3782C39.6177 16.6034 40.1033 18.2148 40.8396 19.9183C41.9831 22.5579 45.9465 24.1233 38.2234 28.405C36.2653 29.4792 33.9468 30.2773 32.3489 30.9372C27.3047 33.009 24.3126 33.6075 25.1115 36.861C26.2394 41.5263 37.3305 41.7565 42.1398 35.3723C44.4426 32.3184 45.5548 28.3743 46.2128 28.3743C46.9177 28.3743 47.3563 31.904 50.2858 35.3723C55.424 41.4956 66.1861 41.5263 67.314 36.861C68.3322 32.5639 62.63 32.3184 54.1864 28.3896Z" fill="#D3E0EA"/>
<path d="M98.848 35.53C98.528 35.53 98.296 35.458 98.152 35.314C98.008 35.17 97.936 34.954 97.936 34.666V30.034L92.032 19.882C91.968 19.77 91.936 19.666 91.936 19.57C91.936 19.33 92.08 19.21 92.368 19.21H94.432C94.64 19.21 94.776 19.242 94.84 19.306C94.92 19.354 95.008 19.45 95.104 19.594L99.496 27.226L103.864 19.594C103.944 19.45 104.024 19.354 104.104 19.306C104.2 19.242 104.344 19.21 104.536 19.21H106.624C106.912 19.21 107.056 19.33 107.056 19.57C107.056 19.666 107.024 19.77 106.96 19.882L101.032 30.058V34.666C101.032 34.954 100.96 35.17 100.816 35.314C100.688 35.458 100.456 35.53 100.12 35.53H98.848ZM115.332 35.89C112.692 35.89 110.66 35.146 109.236 33.658C107.828 32.17 107.124 30.074 107.124 27.37C107.124 24.666 107.828 22.57 109.236 21.082C110.66 19.594 112.692 18.85 115.332 18.85C117.956 18.85 119.98 19.594 121.404 21.082C122.828 22.57 123.54 24.666 123.54 27.37C123.54 30.074 122.828 32.17 121.404 33.658C119.98 35.146 117.956 35.89 115.332 35.89ZM115.332 33.634C117.012 33.634 118.292 33.106 119.172 32.05C120.052 30.978 120.492 29.418 120.492 27.37C120.492 25.322 120.052 23.77 119.172 22.714C118.292 21.658 117.012 21.13 115.332 21.13C113.652 21.13 112.364 21.658 111.468 22.714C110.588 23.77 110.148 25.322 110.148 27.37C110.148 29.418 110.588 30.978 111.468 32.05C112.364 33.106 113.652 33.634 115.332 33.634ZM133.949 35.89C131.229 35.89 129.125 35.154 127.637 33.682C126.149 32.21 125.405 30.106 125.405 27.37C125.405 24.65 126.149 22.554 127.637 21.082C129.141 19.594 131.245 18.85 133.949 18.85C135.037 18.85 136.053 18.962 136.997 19.186C137.941 19.41 138.725 19.73 139.349 20.146C139.493 20.242 139.565 20.346 139.565 20.458C139.565 20.538 139.533 20.634 139.469 20.746L138.773 21.946C138.677 22.09 138.581 22.162 138.485 22.162C138.437 22.162 138.333 22.122 138.173 22.042C137.085 21.434 135.789 21.13 134.285 21.13C132.461 21.13 131.029 21.65 129.989 22.69C128.949 23.714 128.429 25.274 128.429 27.37C128.429 29.482 128.933 31.05 129.941 32.074C130.949 33.098 132.333 33.61 134.093 33.61C134.733 33.61 135.357 33.562 135.965 33.466C136.573 33.354 137.069 33.202 137.453 33.01V28.57H134.285C133.965 28.57 133.741 28.506 133.613 28.378C133.485 28.234 133.421 28.01 133.421 27.706V27.082C133.421 26.778 133.485 26.57 133.613 26.458C133.741 26.33 133.965 26.266 134.285 26.266H139.349C139.701 26.266 139.949 26.354 140.093 26.53C140.253 26.69 140.333 26.946 140.333 27.298V33.634C140.333 33.874 140.309 34.058 140.261 34.186C140.213 34.298 140.109 34.402 139.949 34.498C138.477 35.426 136.477 35.89 133.949 35.89ZM142.617 35.53C142.345 35.53 142.209 35.41 142.209 35.17C142.209 35.074 142.233 34.97 142.281 34.858L148.617 19.834C148.713 19.594 148.817 19.434 148.929 19.354C149.041 19.258 149.201 19.21 149.409 19.21H150.729C150.953 19.21 151.113 19.258 151.209 19.354C151.321 19.434 151.425 19.594 151.521 19.834L157.857 34.858C157.905 34.97 157.929 35.074 157.929 35.17C157.929 35.41 157.793 35.53 157.521 35.53H155.433C155.225 35.53 155.073 35.506 154.977 35.458C154.897 35.394 154.817 35.274 154.737 35.098L153.369 31.738H146.745L145.401 35.098C145.321 35.274 145.233 35.394 145.137 35.458C145.057 35.506 144.913 35.53 144.705 35.53H142.617ZM152.601 29.506L150.057 23.218L147.513 29.506H152.601ZM170.531 35.53C170.211 35.53 169.979 35.458 169.835 35.314C169.707 35.17 169.643 34.954 169.643 34.666V20.098C169.643 19.794 169.707 19.57 169.835 19.426C169.979 19.282 170.211 19.21 170.531 19.21H176.675C178.643 19.21 180.099 19.682 181.043 20.626C182.003 21.554 182.483 22.89 182.483 24.634C182.483 26.362 182.003 27.69 181.043 28.618C180.099 29.546 178.643 30.01 176.675 30.01H172.715V34.666C172.715 34.954 172.643 35.17 172.499 35.314C172.371 35.458 172.139 35.53 171.803 35.53H170.531ZM176.531 27.682C177.507 27.682 178.235 27.434 178.715 26.938C179.195 26.426 179.435 25.658 179.435 24.634C179.435 23.594 179.195 22.826 178.715 22.33C178.235 21.818 177.507 21.562 176.531 21.562H172.715V27.682H176.531ZM191.48 35.89C188.84 35.89 186.808 35.146 185.384 33.658C183.976 32.17 183.272 30.074 183.272 27.37C183.272 24.666 183.976 22.57 185.384 21.082C186.808 19.594 188.84 18.85 191.48 18.85C194.104 18.85 196.128 19.594 197.552 21.082C198.976 22.57 199.688 24.666 199.688 27.37C199.688 30.074 198.976 32.17 197.552 33.658C196.128 35.146 194.104 35.89 191.48 35.89ZM191.48 33.634C193.16 33.634 194.44 33.106 195.32 32.05C196.2 30.978 196.64 29.418 196.64 27.37C196.64 25.322 196.2 23.77 195.32 22.714C194.44 21.658 193.16 21.13 191.48 21.13C189.8 21.13 188.512 21.658 187.616 22.714C186.736 23.77 186.296 25.322 186.296 27.37C186.296 29.418 186.736 30.978 187.616 32.05C188.512 33.106 189.8 33.634 191.48 33.634ZM206.787 35.89C205.651 35.89 204.531 35.77 203.427 35.53C202.339 35.274 201.467 34.922 200.811 34.474C200.603 34.33 200.499 34.202 200.499 34.09C200.499 33.978 200.531 33.882 200.595 33.802L201.387 32.554C201.483 32.41 201.571 32.338 201.651 32.338C201.731 32.338 201.835 32.378 201.963 32.458C202.555 32.81 203.243 33.098 204.027 33.322C204.811 33.53 205.603 33.634 206.403 33.634C207.491 33.634 208.307 33.458 208.851 33.106C209.411 32.738 209.691 32.154 209.691 31.354C209.691 30.874 209.587 30.49 209.379 30.202C209.171 29.914 208.867 29.666 208.467 29.458C208.067 29.25 207.419 28.97 206.523 28.618L205.971 28.402C204.931 27.986 204.067 27.586 203.379 27.202C202.707 26.818 202.147 26.314 201.699 25.69C201.251 25.066 201.027 24.306 201.027 23.41C201.027 21.954 201.579 20.834 202.683 20.05C203.803 19.25 205.267 18.85 207.075 18.85C208.179 18.85 209.131 18.954 209.931 19.162C210.747 19.37 211.451 19.69 212.043 20.122C212.235 20.266 212.331 20.402 212.331 20.53C212.331 20.626 212.299 20.714 212.235 20.794L211.467 22.042C211.371 22.186 211.291 22.258 211.227 22.258C211.163 22.258 211.059 22.21 210.915 22.114C209.891 21.458 208.619 21.13 207.099 21.13C206.091 21.13 205.331 21.314 204.819 21.682C204.307 22.05 204.051 22.634 204.051 23.434C204.051 23.93 204.155 24.33 204.363 24.634C204.587 24.922 204.907 25.17 205.323 25.378C205.739 25.586 206.411 25.866 207.339 26.218L207.939 26.458C209.107 26.922 210.019 27.354 210.675 27.754C211.331 28.138 211.835 28.626 212.187 29.218C212.555 29.794 212.739 30.538 212.739 31.45C212.739 32.826 212.219 33.914 211.179 34.714C210.155 35.498 208.691 35.89 206.787 35.89ZM215.976 35.53C215.656 35.53 215.424 35.458 215.28 35.314C215.152 35.17 215.088 34.954 215.088 34.666V20.098C215.088 19.794 215.152 19.57 215.28 19.426C215.424 19.282 215.656 19.21 215.976 19.21H225.96C226.28 19.21 226.496 19.274 226.608 19.402C226.736 19.53 226.8 19.746 226.8 20.05V20.698C226.8 21.002 226.736 21.226 226.608 21.37C226.496 21.498 226.28 21.562 225.96 21.562H218.16V26.218H223.824C224.144 26.218 224.368 26.282 224.496 26.41C224.624 26.538 224.688 26.754 224.688 27.058V27.658C224.688 27.962 224.624 28.186 224.496 28.33C224.368 28.458 224.144 28.522 223.824 28.522H218.16V33.202H225.936C226.256 33.202 226.48 33.274 226.608 33.418C226.736 33.546 226.8 33.762 226.8 34.066V34.714C226.8 35.002 226.736 35.21 226.608 35.338C226.48 35.466 226.256 35.53 225.936 35.53H215.976ZM93.304 65.53C92.984 65.53 92.752 65.458 92.608 65.314C92.48 65.17 92.416 64.954 92.416 64.666V50.098C92.416 49.794 92.48 49.57 92.608 49.426C92.752 49.282 92.984 49.21 93.304 49.21H98.104C100.808 49.21 102.872 49.858 104.296 51.154C105.736 52.45 106.456 54.522 106.456 57.37C106.456 62.81 103.672 65.53 98.104 65.53H93.304ZM98.296 63.202C99.992 63.202 101.264 62.762 102.112 61.882C102.976 61.002 103.408 59.498 103.408 57.37C103.408 55.242 102.976 53.746 102.112 52.882C101.264 52.002 99.992 51.562 98.296 51.562H95.488V63.202H98.296ZM109.687 65.53C109.367 65.53 109.135 65.458 108.991 65.314C108.863 65.17 108.799 64.954 108.799 64.666V50.098C108.799 49.794 108.863 49.57 108.991 49.426C109.135 49.282 109.367 49.21 109.687 49.21H119.671C119.991 49.21 120.207 49.274 120.319 49.402C120.447 49.53 120.511 49.746 120.511 50.05V50.698C120.511 51.002 120.447 51.226 120.319 51.37C120.207 51.498 119.991 51.562 119.671 51.562H111.871V56.218H117.535C117.855 56.218 118.079 56.282 118.207 56.41C118.335 56.538 118.399 56.754 118.399 57.058V57.658C118.399 57.962 118.335 58.186 118.207 58.33C118.079 58.458 117.855 58.522 117.535 58.522H111.871V63.202H119.647C119.967 63.202 120.191 63.274 120.319 63.418C120.447 63.546 120.511 63.762 120.511 64.066V64.714C120.511 65.002 120.447 65.21 120.319 65.338C120.191 65.466 119.967 65.53 119.647 65.53H109.687ZM127.619 65.53C127.299 65.53 127.067 65.458 126.923 65.314C126.779 65.17 126.707 64.954 126.707 64.666V51.562H122.507C122.187 51.562 121.963 51.498 121.835 51.37C121.723 51.242 121.667 51.026 121.667 50.722V50.074C121.667 49.77 121.723 49.554 121.835 49.426C121.963 49.282 122.187 49.21 122.507 49.21H133.979C134.299 49.21 134.523 49.282 134.651 49.426C134.779 49.554 134.843 49.77 134.843 50.074V50.722C134.843 51.026 134.779 51.242 134.651 51.37C134.523 51.498 134.299 51.562 133.979 51.562H129.779V64.666C129.779 64.954 129.707 65.17 129.563 65.314C129.435 65.458 129.203 65.53 128.867 65.53H127.619ZM137.601 65.53C137.281 65.53 137.049 65.458 136.905 65.314C136.777 65.17 136.713 64.954 136.713 64.666V50.098C136.713 49.794 136.777 49.57 136.905 49.426C137.049 49.282 137.281 49.21 137.601 49.21H147.585C147.905 49.21 148.121 49.274 148.233 49.402C148.361 49.53 148.425 49.746 148.425 50.05V50.698C148.425 51.002 148.361 51.226 148.233 51.37C148.121 51.498 147.905 51.562 147.585 51.562H139.785V56.218H145.449C145.769 56.218 145.993 56.282 146.121 56.41C146.249 56.538 146.313 56.754 146.313 57.058V57.658C146.313 57.962 146.249 58.186 146.121 58.33C145.993 58.458 145.769 58.522 145.449 58.522H139.785V63.202H147.561C147.881 63.202 148.105 63.274 148.233 63.418C148.361 63.546 148.425 63.762 148.425 64.066V64.714C148.425 65.002 148.361 65.21 148.233 65.338C148.105 65.466 147.881 65.53 147.561 65.53H137.601ZM157.527 65.89C154.807 65.89 152.703 65.154 151.215 63.682C149.727 62.21 148.983 60.106 148.983 57.37C148.983 54.634 149.711 52.53 151.167 51.058C152.639 49.586 154.735 48.85 157.455 48.85C158.543 48.85 159.551 48.962 160.479 49.186C161.407 49.41 162.191 49.73 162.831 50.146C162.975 50.242 163.047 50.346 163.047 50.458C163.047 50.554 163.007 50.666 162.927 50.794L162.255 51.946C162.159 52.09 162.071 52.162 161.991 52.162C161.927 52.162 161.815 52.122 161.655 52.042C160.647 51.434 159.359 51.13 157.791 51.13C155.983 51.13 154.567 51.65 153.543 52.69C152.519 53.73 152.007 55.29 152.007 57.37C152.007 59.482 152.535 61.058 153.591 62.098C154.647 63.122 156.071 63.634 157.863 63.634C159.527 63.634 160.895 63.322 161.967 62.698C162.127 62.618 162.231 62.578 162.279 62.578C162.375 62.578 162.471 62.65 162.567 62.794L163.311 64.042C163.359 64.138 163.383 64.218 163.383 64.282C163.383 64.378 163.295 64.482 163.119 64.594C161.887 65.458 160.023 65.89 157.527 65.89ZM170.088 65.53C169.768 65.53 169.536 65.458 169.392 65.314C169.248 65.17 169.176 64.954 169.176 64.666V51.562H164.976C164.656 51.562 164.432 51.498 164.304 51.37C164.192 51.242 164.136 51.026 164.136 50.722V50.074C164.136 49.77 164.192 49.554 164.304 49.426C164.432 49.282 164.656 49.21 164.976 49.21H176.448C176.768 49.21 176.992 49.282 177.12 49.426C177.248 49.554 177.312 49.77 177.312 50.074V50.722C177.312 51.026 177.248 51.242 177.12 51.37C176.992 51.498 176.768 51.562 176.448 51.562H172.248V64.666C172.248 64.954 172.176 65.17 172.032 65.314C171.904 65.458 171.672 65.53 171.336 65.53H170.088ZM180.07 65.53C179.75 65.53 179.518 65.458 179.374 65.314C179.246 65.17 179.182 64.954 179.182 64.666V50.098C179.182 49.794 179.246 49.57 179.374 49.426C179.518 49.282 179.75 49.21 180.07 49.21H181.342C181.662 49.21 181.894 49.282 182.038 49.426C182.182 49.57 182.254 49.794 182.254 50.098V64.666C182.254 64.954 182.182 65.17 182.038 65.314C181.91 65.458 181.678 65.53 181.342 65.53H180.07ZM192.816 65.89C190.176 65.89 188.144 65.146 186.72 63.658C185.312 62.17 184.608 60.074 184.608 57.37C184.608 54.666 185.312 52.57 186.72 51.082C188.144 49.594 190.176 48.85 192.816 48.85C195.44 48.85 197.464 49.594 198.888 51.082C200.312 52.57 201.024 54.666 201.024 57.37C201.024 60.074 200.312 62.17 198.888 63.658C197.464 65.146 195.44 65.89 192.816 65.89ZM192.816 63.634C194.496 63.634 195.776 63.106 196.656 62.05C197.536 60.978 197.976 59.418 197.976 57.37C197.976 55.322 197.536 53.77 196.656 52.714C195.776 51.658 194.496 51.13 192.816 51.13C191.136 51.13 189.848 51.658 188.952 52.714C188.072 53.77 187.632 55.322 187.632 57.37C187.632 59.418 188.072 60.978 188.952 62.05C189.848 63.106 191.136 63.634 192.816 63.634ZM204.257 65.53C203.937 65.53 203.705 65.458 203.561 65.314C203.433 65.17 203.369 64.954 203.369 64.666V50.098C203.369 49.794 203.433 49.57 203.561 49.426C203.705 49.282 203.945 49.21 204.281 49.21H205.385C205.609 49.21 205.785 49.242 205.913 49.306C206.041 49.37 206.169 49.498 206.297 49.69L214.217 60.682V50.098C214.217 49.794 214.281 49.57 214.409 49.426C214.553 49.282 214.785 49.21 215.105 49.21H216.377C216.697 49.21 216.929 49.282 217.073 49.426C217.217 49.57 217.289 49.794 217.289 50.098V64.666C217.289 64.954 217.217 65.17 217.073 65.314C216.945 65.458 216.713 65.53 216.377 65.53H215.249C215.025 65.53 214.857 65.506 214.745 65.458C214.633 65.394 214.505 65.266 214.361 65.074L206.441 54.106V64.666C206.441 64.954 206.369 65.17 206.225 65.314C206.097 65.458 205.865 65.53 205.529 65.53H204.257Z" fill="#D3E0EA"/>
</svg>
