<svg width="44" height="32" viewBox="0 0 44 32" fill="none" xmlns="http://www.w3.org/2000/svg">
<path d="M30.1864 19.3896C22.6044 15.8599 26.3954 13.7421 27.5703 10.9029C28.2753 9.18412 28.8079 7.9257 28.1969 5.31678C27.398 1.90983 24.6409 0.359816 22.0561 0.436549C19.5653 0.497936 17.0589 2.07864 16.1973 5.37816C15.6177 7.60342 16.1033 9.21482 16.8396 10.9183C17.9831 13.5579 21.9465 15.1233 14.2234 19.405C12.2653 20.4792 9.9468 21.2773 8.34893 21.9372C3.30469 24.009 0.312611 24.6075 1.11154 27.861C2.23945 32.5263 13.3305 32.7565 18.1398 26.3723C20.4426 23.3184 21.5548 19.3743 22.2128 19.3743C22.9177 19.3743 23.3563 22.904 26.2858 26.3723C31.424 32.4956 42.1861 32.5263 43.314 27.861C44.3322 23.5639 38.63 23.3184 30.1864 19.3896Z" fill="#D3E0EA"/>
</svg>
